<svg fill="#000000" height="200px" width="200px" version="1.1" id="Layer_1" xmlns="http://www.w3.org/2000/svg" xmlns:xlink="http://www.w3.org/1999/xlink" viewBox="-51.2 -51.2 614.40 614.40" xml:space="preserve" transform="rotate(0)matrix(-1, 0, 0, 1, 0, 0)"><g id="SVGRepo_bgCarrier" stroke-width="0"></g><g id="SVGRepo_tracerCarrier" stroke-linecap="round" stroke-linejoin="round"></g><g id="SVGRepo_iconCarrier"> <g> <g> <g> <path d="M405.269,58.645c-55.216,0-100.771,42.147-106.189,95.96H10.77c-0.104,0-0.205,0.013-0.309,0.015 c-0.201,0.006-0.402,0.014-0.604,0.03c-0.167,0.015-0.333,0.036-0.499,0.057c-0.179,0.025-0.356,0.05-0.534,0.082 c-0.177,0.032-0.35,0.07-0.523,0.111c-0.165,0.039-0.331,0.081-0.494,0.127c-0.172,0.05-0.342,0.103-0.512,0.162 c-0.164,0.056-0.327,0.114-0.488,0.178c-0.159,0.064-0.316,0.13-0.472,0.2c-0.167,0.075-0.333,0.155-0.495,0.239 c-0.143,0.073-0.283,0.151-0.423,0.23c-0.165,0.095-0.33,0.194-0.49,0.298c-0.133,0.086-0.262,0.176-0.39,0.266 c-0.155,0.11-0.307,0.223-0.458,0.341c-0.131,0.104-0.26,0.214-0.386,0.325c-0.134,0.116-0.267,0.235-0.395,0.359 c-0.138,0.132-0.268,0.271-0.398,0.41c-0.074,0.081-0.156,0.153-0.229,0.237c-0.034,0.04-0.062,0.082-0.096,0.122 c-0.13,0.153-0.252,0.312-0.375,0.473c-0.095,0.125-0.194,0.249-0.282,0.377c-0.109,0.156-0.207,0.319-0.307,0.481 c-0.086,0.14-0.177,0.279-0.256,0.422c-0.087,0.157-0.164,0.321-0.244,0.482c-0.075,0.154-0.155,0.307-0.223,0.464 c-0.069,0.159-0.126,0.325-0.19,0.489c-0.061,0.165-0.126,0.328-0.181,0.495c-0.052,0.162-0.093,0.328-0.137,0.493 c-0.046,0.174-0.097,0.349-0.135,0.526c-0.033,0.159-0.058,0.321-0.084,0.482c-0.032,0.19-0.065,0.379-0.087,0.569 c-0.018,0.153-0.025,0.308-0.037,0.463c-0.014,0.202-0.027,0.406-0.029,0.61C0.006,165.274,0,165.324,0,165.374v277.212 c0,0.052,0.006,0.101,0.009,0.153c0.002,0.204,0.016,0.405,0.029,0.607c0.012,0.156,0.019,0.311,0.037,0.464 c0.023,0.19,0.055,0.379,0.086,0.568c0.027,0.162,0.052,0.324,0.085,0.484c0.038,0.176,0.087,0.348,0.135,0.522 c0.044,0.166,0.085,0.335,0.138,0.498c0.053,0.165,0.117,0.326,0.179,0.489c0.062,0.166,0.121,0.333,0.192,0.494 c0.067,0.155,0.145,0.305,0.22,0.457c0.08,0.165,0.159,0.331,0.248,0.49c0.078,0.14,0.166,0.276,0.251,0.412 c0.102,0.166,0.203,0.332,0.313,0.491c0.086,0.125,0.181,0.246,0.275,0.367c0.124,0.164,0.249,0.327,0.382,0.484 c0.033,0.039,0.06,0.08,0.094,0.117c0.062,0.071,0.131,0.131,0.197,0.2c0.157,0.17,0.318,0.337,0.486,0.496 c0.115,0.111,0.232,0.215,0.351,0.32c0.156,0.136,0.317,0.266,0.479,0.394c0.134,0.103,0.267,0.205,0.403,0.3 c0.165,0.115,0.334,0.223,0.505,0.33c0.14,0.087,0.278,0.176,0.42,0.255c0.19,0.107,0.384,0.2,0.579,0.294 c0.13,0.064,0.257,0.131,0.39,0.188c0.235,0.102,0.476,0.19,0.719,0.275c0.099,0.034,0.196,0.076,0.294,0.108 c0.303,0.096,0.612,0.177,0.925,0.246c0.044,0.011,0.088,0.025,0.135,0.034c0.715,0.15,1.456,0.23,2.215,0.23h447.807 c0.759,0,1.499-0.081,2.215-0.23c0.044-0.01,0.087-0.024,0.131-0.033c0.314-0.07,0.624-0.15,0.927-0.247 c0.1-0.032,0.199-0.074,0.297-0.11c0.242-0.085,0.482-0.171,0.716-0.274c0.134-0.058,0.263-0.126,0.394-0.19 c0.194-0.094,0.387-0.187,0.574-0.293c0.144-0.081,0.284-0.171,0.426-0.258c0.168-0.106,0.335-0.211,0.498-0.324 c0.139-0.098,0.274-0.201,0.409-0.307c0.16-0.125,0.319-0.253,0.472-0.386c0.122-0.107,0.242-0.214,0.36-0.327 c0.164-0.156,0.322-0.319,0.475-0.487c0.065-0.071,0.138-0.134,0.202-0.207c0.036-0.04,0.064-0.082,0.097-0.122 c0.13-0.153,0.252-0.311,0.374-0.472c0.096-0.126,0.194-0.249,0.283-0.378c0.108-0.157,0.206-0.319,0.307-0.481 c0.086-0.14,0.177-0.279,0.255-0.422c0.087-0.157,0.164-0.32,0.244-0.481c0.075-0.155,0.155-0.307,0.223-0.464 c0.069-0.159,0.127-0.325,0.19-0.49c0.063-0.164,0.127-0.327,0.181-0.493c0.052-0.161,0.093-0.328,0.137-0.493 c0.047-0.176,0.098-0.349,0.136-0.526c0.033-0.158,0.057-0.321,0.084-0.482c0.031-0.19,0.066-0.379,0.086-0.569 c0.018-0.153,0.025-0.308,0.037-0.462c0.014-0.204,0.028-0.407,0.03-0.611c0.001-0.051,0.009-0.1,0.009-0.152v-191.91 C495.23,231.181,512,200.2,512,165.374C512,106.524,464.121,58.645,405.269,58.645z M299.077,176.144 c0.093,0.925,0.2,1.847,0.318,2.766c0.012,0.094,0.025,0.186,0.038,0.281c0.1,0.771,0.207,1.54,0.324,2.306 c0.027,0.183,0.059,0.365,0.088,0.548c0.106,0.674,0.216,1.347,0.335,2.018c0.041,0.229,0.085,0.458,0.128,0.687 c0.113,0.621,0.232,1.242,0.357,1.86c0.052,0.254,0.107,0.507,0.159,0.761c0.124,0.591,0.251,1.182,0.386,1.77 c0.061,0.267,0.124,0.532,0.187,0.798c0.135,0.572,0.274,1.144,0.419,1.712c0.069,0.271,0.14,0.543,0.211,0.814 c0.148,0.561,0.298,1.121,0.456,1.679c0.075,0.271,0.153,0.543,0.232,0.813c0.159,0.556,0.326,1.108,0.494,1.661 c0.065,0.211,0.128,0.423,0.194,0.633h-34.585c-5.947,0-10.77,4.822-10.77,10.77c0,5.948,4.823,10.77,10.77,10.77h44.081 c0.023,0.038,0.044,0.074,0.066,0.111c0.314,0.54,0.63,1.077,0.953,1.611c0.131,0.215,0.265,0.429,0.396,0.644 c0.306,0.495,0.613,0.991,0.926,1.482c0.149,0.234,0.3,0.465,0.451,0.697c0.305,0.47,0.611,0.936,0.923,1.4 c0.16,0.24,0.325,0.478,0.488,0.717c0.308,0.451,0.619,0.9,0.934,1.346c0.171,0.243,0.345,0.485,0.518,0.726 c0.313,0.436,0.63,0.871,0.951,1.302c0.18,0.243,0.362,0.486,0.544,0.728c0.322,0.425,0.647,0.849,0.975,1.27 c0.185,0.24,0.373,0.478,0.562,0.716c0.333,0.421,0.669,0.837,1.008,1.253c0.188,0.23,0.376,0.461,0.565,0.69 c0.348,0.419,0.7,0.834,1.054,1.247c0.19,0.221,0.377,0.442,0.565,0.659c0.368,0.423,0.742,0.841,1.117,1.257 c0.181,0.201,0.36,0.404,0.543,0.604c0.401,0.439,0.808,0.875,1.216,1.306c0.161,0.171,0.322,0.346,0.485,0.516 c0.456,0.476,0.919,0.947,1.382,1.415c0.121,0.122,0.24,0.247,0.361,0.367c1.784,1.781,3.631,3.501,5.536,5.153 c0.122,0.106,0.246,0.208,0.368,0.312c0.508,0.436,1.017,0.87,1.533,1.297c0.185,0.154,0.375,0.303,0.56,0.454 c0.459,0.374,0.918,0.746,1.382,1.114c0.218,0.171,0.437,0.339,0.656,0.51c0.437,0.339,0.876,0.677,1.319,1.011 c0.241,0.181,0.484,0.36,0.728,0.539c0.415,0.307,0.83,0.613,1.249,0.913l-108.539,95.126L39.399,176.144H299.077z M21.54,189.135l131.041,114.846L21.54,418.827V189.135z M39.399,431.815l129.522-113.514l58.654,51.405 c2.032,1.78,4.564,2.67,7.1,2.67c2.533,0,5.067-0.891,7.099-2.67l58.653-51.406l129.522,113.515H39.399z M447.807,418.827 l-131.04-114.846l46.302-40.581c0.124,0.054,0.247,0.109,0.372,0.161c0.117,0.051,0.236,0.103,0.353,0.154 c1.567,0.663,3.153,1.29,4.756,1.879c0.192,0.07,0.385,0.136,0.576,0.205c0.603,0.218,1.205,0.433,1.814,0.64 c0.271,0.093,0.545,0.18,0.816,0.269c0.532,0.177,1.064,0.352,1.598,0.52c0.309,0.097,0.618,0.189,0.927,0.282 c0.505,0.154,1.01,0.306,1.516,0.452c0.328,0.095,0.656,0.184,0.985,0.275c0.493,0.137,0.987,0.271,1.482,0.402 c0.342,0.089,0.687,0.176,1.031,0.262c0.485,0.122,0.97,0.241,1.459,0.356c0.354,0.083,0.71,0.164,1.066,0.245 c0.481,0.109,0.965,0.214,1.449,0.317c0.362,0.075,0.724,0.15,1.087,0.222c0.484,0.096,0.968,0.19,1.455,0.279 c0.366,0.068,0.732,0.134,1.1,0.198c0.486,0.084,0.973,0.165,1.463,0.243c0.369,0.059,0.738,0.117,1.11,0.172 c0.491,0.073,0.984,0.141,1.478,0.208c0.369,0.049,0.739,0.1,1.109,0.145c0.5,0.062,1.002,0.117,1.503,0.172 c0.369,0.041,0.737,0.083,1.106,0.118c0.512,0.051,1.023,0.094,1.537,0.138c0.362,0.03,0.724,0.064,1.086,0.092 c0.541,0.04,1.085,0.071,1.627,0.103c0.337,0.019,0.672,0.043,1.01,0.06c0.601,0.03,1.202,0.05,1.806,0.069 c0.284,0.009,0.568,0.023,0.853,0.03c0.886,0.022,1.776,0.033,2.669,0.033c0,0,0,0,0.001,0c0.001,0,0.001,0,0.001,0 c0.922,0,1.843-0.012,2.76-0.036c0.261-0.006,0.519-0.022,0.781-0.03c0.652-0.022,1.306-0.042,1.956-0.074 c0.547-0.028,1.093-0.069,1.639-0.104c0.361-0.024,0.722-0.042,1.081-0.069c0.743-0.057,1.485-0.126,2.225-0.198 c0.154-0.016,0.311-0.026,0.466-0.042c10.947-1.111,21.595-3.898,31.626-8.263V418.827z M422.752,248.753 c-0.226,0.047-0.452,0.094-0.679,0.139c-1.181,0.237-2.372,0.451-3.569,0.64c-0.122,0.018-0.242,0.042-0.365,0.06 c-1.291,0.197-2.593,0.36-3.903,0.498c-0.292,0.03-0.585,0.053-0.878,0.081c-1.02,0.097-2.045,0.174-3.076,0.235 c-0.363,0.022-0.727,0.043-1.092,0.06c-1.298,0.059-2.602,0.099-3.916,0.099c-0.002,0-0.004,0-0.006,0 c-46.972,0-85.188-38.216-85.188-85.19c0-46.974,38.216-85.191,85.19-85.191s85.191,38.216,85.191,85.19 C490.46,206.356,461.367,240.666,422.752,248.753z"></path> <path d="M441.465,152.024V134.74c0-19.959-16.237-36.197-36.197-36.197c-19.959,0-36.197,16.238-36.197,36.197v17.284 c-7.543,3.911-12.714,11.789-12.714,20.856v25.43c-0.001,12.949,10.533,23.484,23.483,23.484h50.855 c12.949,0,23.484-10.535,23.484-23.484v-25.43C454.179,163.813,449.01,155.935,441.465,152.024z M390.609,134.74h0.001 c0-8.082,6.575-14.657,14.657-14.657c8.082,0,14.657,6.575,14.657,14.657v14.658h-29.315V134.74z M432.638,198.31 c0,1.035-0.908,1.944-1.944,1.944h-50.855c-1.035,0-1.944-0.908-1.944-1.944v-25.43c0-1.052,0.89-1.942,1.944-1.942h50.855 c1.053,0,1.944,0.89,1.944,1.942V198.31z"></path> <path d="M237.944,218.791c5.948,0,10.77-4.822,10.77-10.77c0-5.948-4.822-10.77-10.77-10.77h-0.782 c-5.948,0-10.77,4.822-10.77,10.77c0,5.948,4.822,10.77,10.77,10.77H237.944z"></path> </g> </g> </g> </g></svg>